<?xml version="1.0" encoding="utf-8"?>
<!-- Generator: Adobe Illustrator 21.1.0, SVG Export Plug-In . SVG Version: 6.00 Build 0)  -->
<svg version="1.1" id="Layer_2" xmlns="http://www.w3.org/2000/svg" xmlns:xlink="http://www.w3.org/1999/xlink" x="0px" y="0px"
	 viewBox="0 0 400 400" style="enable-background:new 0 0 400 400;" xml:space="preserve">
<style type="text/css">
	.st0{fill:#333333;}
	.st1{font-family:'nudista-web', sans-serif;}
	.st2{font-size:31.8139px;}
	.st3{opacity:0.7;fill:url(#SVGID_1_);}
	.st4{opacity:0.5;fill:url(#SVGID_2_);}
	.st5{opacity:0.7;fill:url(#SVGID_3_);}
	.st6{opacity:0.5;fill:url(#SVGID_4_);}
	.st7{font-size:21.2093px;}
	.st8{fill:none;stroke:#333333;stroke-width:0.8837;stroke-miterlimit:10;}
	.st9{fill:#7F3B7C;}
</style>
<text transform="matrix(1 0 0 1 158.0391 334.6512)" class="st0 st1 st2">Talent</text>
<g>
	
		<linearGradient id="SVGID_1_" gradientUnits="userSpaceOnUse" x1="-2422.4326" y1="-1680.0168" x2="-2821.0796" y2="-1676.304" gradientTransform="matrix(0.2597 0.7403 0.7403 0.2597 2205.8804 2516.6536)">
		<stop  offset="4.687500e-03" style="stop-color:#7F3B7C;stop-opacity:0.3"/>
		<stop  offset="1" style="stop-color:#7F3B7C;stop-opacity:0"/>
	</linearGradient>
	<polygon class="st3" points="199.3,239 381.7,56.5 366.1,40.9 183.6,223.4 	"/>
	
		<linearGradient id="SVGID_2_" gradientUnits="userSpaceOnUse" x1="-2198.7937" y1="-900.4789" x2="-2597.4407" y2="-896.7661" gradientTransform="matrix(1.7214 2.0777 2.0777 1.7214 6205.395 6644.1577)">
		<stop  offset="4.687500e-03" style="stop-color:#7F3B7C;stop-opacity:0.3"/>
		<stop  offset="1" style="stop-color:#7F3B7C;stop-opacity:0"/>
	</linearGradient>
	<polygon class="st4" points="172.4,212.1 307.7,76.8 248.3,17.5 113,152.8 	"/>
	
		<linearGradient id="SVGID_3_" gradientUnits="userSpaceOnUse" x1="-2846.5886" y1="-431.6918" x2="-3245.2356" y2="-427.979" gradientTransform="matrix(-0.2617 0.7383 -0.7383 0.2617 -997.9048 2501.9883)">
		<stop  offset="0" style="stop-color:#7F3B7C;stop-opacity:0.3"/>
		<stop  offset="1" style="stop-color:#7F3B7C;stop-opacity:0"/>
	</linearGradient>
	<polygon class="st5" points="199.2,239 18.3,58 33.9,42.4 214.8,223.4 	"/>
	
		<linearGradient id="SVGID_4_" gradientUnits="userSpaceOnUse" x1="-3159.0222" y1="276.6914" x2="-3557.6692" y2="280.4042" gradientTransform="matrix(-1.7215 2.0776 -2.0776 1.7215 -5014.3721 6612.5396)">
		<stop  offset="0" style="stop-color:#7F3B7C;stop-opacity:0.3"/>
		<stop  offset="1" style="stop-color:#7F3B7C;stop-opacity:0"/>
	</linearGradient>
	<polygon class="st6" points="226.1,212.1 90.9,76.9 150.2,17.5 285.5,152.8 	"/>
	<text transform="matrix(1 0 0 1 158.9393 76.0293)" class="st0 st1 st7">Employer</text>
	<polyline class="st8" points="10,66.7 200,256.7 390,66.7 	"/>
	
		<rect x="191.8" y="269.2" transform="matrix(0.7071 -0.7071 0.7071 0.7071 -137.5973 222.6801)" class="st9" width="16.5" height="16.5"/>
	<line class="st8" x1="200" y1="111" x2="200" y2="146.3"/>
	<polygon class="st8" points="200,164 217.7,146.3 182.3,146.3 	"/>
</g>
</svg>
