<?xml version="1.0" encoding="utf-8"?>
<svg id="master-artboard" viewBox="0 0 87.1156997680664 86.06712341308594" version="1.1" xmlns="http://www.w3.org/2000/svg" x="0px" y="0px" style="enable-background:new 0 0 1400 980;" width="87.1156997680664px" height="86.06712341308594px"><defs><radialGradient id="gradient-0" gradientUnits="objectBoundingBox" cx="0.5" cy="0.5" r="0.5">
                <stop offset="0" style="stop-color: #43a048"/>
                <stop offset="1" style="stop-color: #255827"/>
              </radialGradient><radialGradient id="gradient-1" gradientUnits="objectBoundingBox" cx="0.5" cy="0.5" r="0.5">
                <stop offset="0" style="stop-color: #43a048"/>
                <stop offset="1" style="stop-color: #255827"/>
              </radialGradient><radialGradient id="gradient-2" gradientUnits="objectBoundingBox" cx="0.5" cy="0.5" r="0.5">
                <stop offset="0" style="stop-color: #43a048"/>
                <stop offset="1" style="stop-color: #255827"/>
              </radialGradient><radialGradient id="gradient-3" gradientUnits="objectBoundingBox" cx="0.9209831357002258" cy="60.079219818115234" r="0.5" gradientTransform="matrix(-0.3707597760368928, 0.7077026385652456, -0.010629348406523409, -0.005568092566154981, 0.7588082571728463, 0.24127137857787906)">
                
                <stop offset="1" style="stop-color: #000000"/>
              </radialGradient></defs>


<rect id="ee-background" x="0" y="0" width="87.1156997680664" height="86.06712341308594" style="fill: rgb(255, 255, 255); fill-opacity: 0; pointer-events: none;"/><g transform="matrix(0.8314592838287352, 0, 0, 0.8314592838287352, -499.1003112792968, -37.42320251464842)"><g id="g-10" transform="matrix(1, 0, 0, 1, 0, 0)">
	<g id="g-11">
		<path class="st0" d="M652,46c27.6,0,50,22.4,50,50s-22.4,50-50,50s-50-22.4-50-50S624.4,46,652,46z" style="fill: rgb(231, 231, 231);"/>
	</g>
</g></g><g transform="matrix(1.5245440006256104, 0, 0, 1.5245440006256104, 6.647126197814941, 5.807816505432129)"><g id="surface1">
<path style=" fill:#FFC107;" d="M 43.609375 20.082031 L 42 20.082031 L 42 20 L 24 20 L 24 28 L 35.304688 28 C 33.652344 32.65625 29.222656 36 24 36 C 17.371094 36 12 30.628906 12 24 C 12 17.371094 17.371094 12 24 12 C 27.058594 12 29.84375 13.152344 31.960938 15.039063 L 37.617188 9.382813 C 34.046875 6.054688 29.269531 4 24 4 C 12.953125 4 4 12.953125 4 24 C 4 35.046875 12.953125 44 24 44 C 35.046875 44 44 35.046875 44 24 C 44 22.660156 43.863281 21.351563 43.609375 20.082031 Z "/>
<path style=" fill:#FF3D00;" d="M 6.304688 14.691406 L 12.878906 19.511719 C 14.65625 15.109375 18.960938 12 24 12 C 27.058594 12 29.84375 13.152344 31.960938 15.039063 L 37.617188 9.382813 C 34.046875 6.054688 29.269531 4 24 4 C 16.316406 4 9.65625 8.335938 6.304688 14.691406 Z "/>
<path style=" fill:#4CAF50;" d="M 24 44 C 29.164063 44 33.859375 42.023438 37.410156 38.808594 L 31.21875 33.570313 C 29.210938 35.089844 26.714844 36 24 36 C 18.796875 36 14.382813 32.683594 12.71875 28.054688 L 6.195313 33.078125 C 9.503906 39.554688 16.226563 44 24 44 Z "/>
<path style=" fill:#1976D2;" d="M 43.609375 20.082031 L 42 20.082031 L 42 20 L 24 20 L 24 28 L 35.304688 28 C 34.511719 30.238281 33.070313 32.164063 31.214844 33.570313 C 31.21875 33.570313 31.21875 33.570313 31.21875 33.570313 L 37.410156 38.808594 C 36.972656 39.203125 44 34 44 24 C 44 22.660156 43.863281 21.351563 43.609375 20.082031 Z "/>
</g></g></svg>