<?xml version="1.0" standalone="no"?>
<!DOCTYPE svg PUBLIC "-//W3C//DTD SVG 20010904//EN"
 "http://www.w3.org/TR/2001/REC-SVG-20010904/DTD/svg10.dtd">
<svg version="1.0" xmlns="http://www.w3.org/2000/svg"
 width="225.000000pt" height="225.000000pt" viewBox="0 0 225.000000 225.000000"
 preserveAspectRatio="xMidYMid meet">
<metadata>
Created by potrace 1.15, written by Peter Selinger 2001-2017
</metadata>
<g transform="translate(0.000000,225.000000) scale(0.100000,-0.100000)"
fill="#007AB9" stroke="none">
<path d="M938 2091 c-351 -77 -632 -324 -746 -657 -58 -170 -67 -401 -23 -574
160 -617 847 -932 1416 -650 539 267 725 948 396 1446 -67 100 -166 205 -257
270 -83 60 -231 128 -334 155 -121 31 -332 36 -452 10z m-98 -456 c40 -21 60
-53 60 -98 0 -82 -61 -134 -148 -124 -113 13 -152 161 -58 218 37 23 106 25
146 4z m727 -324 c51 -26 87 -66 115 -126 22 -47 23 -64 26 -302 l4 -253 -115
0 -115 0 -4 217 c-4 231 -11 268 -57 293 -34 18 -96 12 -126 -12 -49 -39 -55
-69 -55 -293 l0 -205 -115 0 -115 0 0 345 0 345 115 0 115 0 0 -41 0 -41 45
40 c25 22 62 45 83 51 52 14 154 5 199 -18z m-677 -336 l0 -345 -120 0 -120 0
0 345 0 345 120 0 120 0 0 -345z"/>
</g>
</svg>
