<?xml version="1.0" encoding="utf-8"?>
<!-- Generator: Adobe Illustrator 21.1.0, SVG Export Plug-In . SVG Version: 6.00 Build 0)  -->
<svg version="1.1" id="Layer_1" xmlns="http://www.w3.org/2000/svg" xmlns:xlink="http://www.w3.org/1999/xlink" x="0px" y="0px"
	 viewBox="0 0 56 56" style="enable-background:new 0 0 56 56;" xml:space="preserve">
<style type="text/css">
	.st0{fill:#0077B5;}
	.st1{fill-rule:evenodd;clip-rule:evenodd;fill:#FFFFFF;}
</style>
<g>
	<rect x="8.8" y="8.8" transform="matrix(0.7071 -0.7071 0.7071 0.7071 -11.598 28)" class="st0" width="38.4" height="38.4"/>
	<g>
		<path class="st1" d="M23,36.8V24.9h-4v11.9H23L23,36.8z M21,23.3c1.4,0,2.2-0.9,2.2-2.1c0-1.2-0.9-2.1-2.2-2.1
			c-1.4,0-2.2,0.9-2.2,2.1C18.8,22.4,19.6,23.3,21,23.3L21,23.3L21,23.3z"/>
		<path class="st1" d="M25.1,36.8h4v-6.7c0-0.4,0-0.7,0.1-1c0.3-0.7,0.9-1.4,2-1.4c1.4,0,2,1.1,2,2.7v6.4h4V30c0-3.7-2-5.4-4.6-5.4
			c-2.1,0-3.1,1.2-3.6,2h0v-1.7h-4C25.2,26,25.1,36.8,25.1,36.8L25.1,36.8z"/>
	</g>
</g>
</svg>
