<?xml version="1.0" encoding="utf-8"?>
<!-- Generator: Adobe Illustrator 21.1.0, SVG Export Plug-In . SVG Version: 6.00 Build 0)  -->
<svg version="1.1" id="Layer_1" xmlns="http://www.w3.org/2000/svg" xmlns:xlink="http://www.w3.org/1999/xlink" x="0px" y="0px"
	 viewBox="0 0 50 50" style="enable-background:new 0 0 50 50;" xml:space="preserve">
<style type="text/css">
	.st0{fill:#FFFFFF;}
	.st1{fill:#333333;}
</style>
<rect x="13.9" y="11.6" class="st0" width="22.3" height="26.8"/>
<g>
	<g>
		<path class="st1" d="M25,5C14,5,5,14,5,25s9,20,20,20s20-9,20-20S36,5,25,5z M33.5,35.9h-17V23.8h2.9v-5.4c0-3.1,2.5-5.6,5.6-5.6
			s5.6,2.5,5.6,5.6h-1c0-2.6-2.1-4.6-4.6-4.6s-4.6,2.1-4.6,4.6v5.4h13.1V35.9z"/>
	</g>
	<g>
		<rect x="17.5" y="24.8" class="st1" width="15" height="10.1"/>
	</g>
</g>
</svg>
