<?xml version="1.0" encoding="utf-8"?>
<svg id="master-artboard" viewBox="0 0 944.3554077148438 950.2842407226562" version="1.1" xmlns="http://www.w3.org/2000/svg" x="0px" y="0px" style="enable-background:new 0 0 1400 980;" width="944.3554077148438px" height="950.2842407226562px"><rect id="ee-background" x="0" y="0" width="944.3554077148438" height="950.2842407226562" style="fill: rgb(92, 255, 138, 0); fill-opacity: 0; pointer-events: none;"/><defs><style id="ee-google-fonts">@import url(https://fonts.googleapis.com/css?family=Nunito:300,400,700);</style></defs>

































































































<g transform="matrix(21.989662170410156, 0, 0, 21.989662170410156, -77.56383895874023, -74.59941101074219)"><path d="M 13.9 11.6 H 36.199999 V 38.4 H 13.9 V 11.6 Z" class="st0" style="fill: rgb(255, 255, 255); stroke: rgb(255, 255, 255); stroke-width: 2; paint-order: stroke;"/><g>
	<g>
		<path class="st1" d="M25,5C14,5,5,14,5,25s9,20,20,20s20-9,20-20S36,5,25,5z M33.5,35.9h-17V23.8h2.9v-5.4c0-3.1,2.5-5.6,5.6-5.6&#10;&#9;&#9;&#9;s5.6,2.5,5.6,5.6h-1c0-2.6-2.1-4.6-4.6-4.6s-4.6,2.1-4.6,4.6v5.4h13.1V35.9z" style="fill: rgb(51, 51, 51); stroke: rgb(255, 255, 255); stroke-width: 2; paint-order: stroke;"/>
	</g>
	<g>
		<path d="M 17.5 24.799999 H 32.5 V 34.9 H 17.5 V 24.799999 Z" class="st1" style="fill: rgb(51, 51, 51); stroke: rgb(255, 255, 255); stroke-width: 2; paint-order: stroke;"/>
	</g>
</g></g></svg>