<?xml version="1.0" encoding="utf-8"?>
<!-- Generator: Adobe Illustrator 21.1.0, SVG Export Plug-In . SVG Version: 6.00 Build 0)  -->
<svg version="1.1" id="Layer_1" xmlns="http://www.w3.org/2000/svg" xmlns:xlink="http://www.w3.org/1999/xlink" x="0px" y="0px"
	 viewBox="0 0 50 50" style="enable-background:new 0 0 50 50;" xml:space="preserve">
<style type="text/css">
	.st0{fill:#FFFFFF;}
	.st1{fill:none;stroke:#FFFFFF;stroke-miterlimit:10;}
</style>
<g>
	<g>
		<path class="st0" d="M25,6c10.5,0,19,8.5,19,19s-8.5,19-19,19S6,35.5,6,25S14.5,6,25,6 M25,5C14,5,5,14,5,25s9,20,20,20
			s20-9,20-20S36,5,25,5L25,5z"/>
	</g>
	<rect x="17" y="24.3" class="st1" width="16" height="11.1"/>
	<path class="st1" d="M30.1,18.3c0-2.8-2.3-5.1-5.1-5.1s-5.1,2.3-5.1,5.1v5.9"/>
</g>
</svg>
