<?xml version="1.0" encoding="utf-8"?>
<!-- Generator: Adobe Illustrator 21.1.0, SVG Export Plug-In . SVG Version: 6.00 Build 0)  -->
<svg version="1.1" id="Layer_1" xmlns="http://www.w3.org/2000/svg" xmlns:xlink="http://www.w3.org/1999/xlink" x="0px" y="0px"
	 viewBox="0 0 300 100" style="enable-background:new 0 0 300 100;" xml:space="preserve">
<style type="text/css">
	.st0{fill:#333333;}
	.st1{fill:#D9D9D9;}
</style>
<g>
	<path class="st0" d="M134.6,27.2h8.2V23h-8.2V5.2h-4.8v34.3c0,7.8,5.1,11.8,13,11.8v-4.1c-5,0-8.2-2.5-8.2-7.3v-2.4V27.2z"/>
	<rect x="147.5" y="23.1" class="st0" width="4.8" height="28.2"/>
	<rect x="147.5" y="12" class="st0" width="4.8" height="6.6"/>
	<rect x="204.2" y="44.7" class="st1" width="4.8" height="6.6"/>
	<path class="st0" d="M53,21c-7.9,0-13,4-13,11.8v5.6v1.5c0,7.8,5.1,11.8,13,11.8c3.3,0,6.1-0.7,8.2-2.1v1.5c0,4.6-3,7.5-8.3,7.5
		c-3.6,0-6-1.2-7.2-3.2l-4,2.4c2.1,3.2,5.9,5,11.2,5c8,0,13.1-4.2,13.1-11.9v-3.1v-7.9v-1.5v-4.9v-0.7C65.9,25,60.8,21,53,21z
		 M61.1,40.7c-0.2,4.6-3.3,6.9-8.1,6.9c-5,0-8.3-2.5-8.3-7.3v-7.7c0-4.9,3.3-7.3,8.3-7.3c4.9,0,8.1,2.5,8.1,7.3L61.1,40.7z"/>
	<path class="st0" d="M195.3,23.1v17.6c-0.2,4.6-3.3,6.9-8.1,6.9c-5,0-8.3-2.5-8.3-7.3V23.1h-17.3v-6.4c0-4.9,3.3-7.3,8.2-7.3V5.2
		c-7.9,0-13,4-13,11.8v34.3h4.8V27.2h12.6v12.7c0,7.8,5.1,11.8,13,11.8c3.3,0,6.1-0.7,8.2-2.1v1.5c0,4.6-3,7.5-8.3,7.5
		c-3.6,0-6-1.2-7.2-3.2l-4,2.4c2.1,3.2,5.9,5,11.2,5c8,0,13.1-4.2,13.1-11.9V23.1H195.3z"/>
	<path class="st0" d="M82.9,21c-7.9,0-13,4-13,11.8v6.6c0,7.7,5.1,12.3,13.1,12.3c5.3,0,9.2-1.8,11.2-5l-4-2.4
		c-1.2,2-3.6,3.2-7.2,3.2c-5.4,0-8.3-3.2-8.3-7.9v-7.2c0-4.9,3.3-7.3,8.3-7.3c4.9,0,8.1,2.5,8.1,7.3v1.2H78.7v3.8h17.3v-4.7
		C95.9,25,90.7,21,82.9,21z"/>
	<path class="st1" d="M277,21c-7.9,0-13,4-13,11.8v6.6c0,7.7,5.1,12.3,13.1,12.3c5.3,0,9.2-1.8,11.2-5l-4-2.4
		c-1.2,2-3.6,3.2-7.2,3.2c-5.4,0-8.3-3.2-8.3-7.9v-7.2c0-4.9,3.3-7.3,8.3-7.3c4.9,0,8.1,2.5,8.1,7.3v1.2h-12.4v3.8H290v-4.7
		C290,25,284.8,21,277,21z"/>
	<polygon class="st0" points="82.9,41.3 82.9,41.3 82.9,41.3 	"/>
	<path class="st0" d="M104.6,51.3V32.5c0-4.9,3.3-7.3,8.3-7.3c4.9,0,8.1,2.5,8.1,7.3v18.8h4.8V32.8c0-7.8-5.2-11.8-13-11.8
		c-7.9,0-13,4-13,11.8v18.5H104.6z"/>
	<path class="st1" d="M247,21c-4.6,0-8.3,1.4-10.6,4.2c-2.2-2.8-5.9-4.2-10.6-4.2c-7.9,0-13,4-13,11.8v18.5h4.8V32.5
		c0-4.9,3.3-7.3,8.3-7.3c4.9,0,8.1,2.5,8.1,7.3v18.8h4.8V32.5c0-4.9,3.2-7.3,8.1-7.3c5,0,8.3,2.5,8.3,7.3v18.8h4.8V32.8
		C260,25,254.9,21,247,21z"/>
	<path class="st0" d="M31.2,51.3H36v-3.6v-7.9v-1.5v-4.9v-0.7C36,25,30.8,21,23,21c-7.9,0-13,4-13,11.8v5.6v1.5
		c0,7.8,5.1,11.8,13,11.8c3.3,0,6.1-0.7,8.2-2.1V51.3z M31.2,40.6c-0.2,4.6-3.3,6.9-8.1,6.9c-5,0-8.3-2.5-8.3-7.3v-7.7
		c0-4.9,3.3-7.3,8.3-7.3c4.9,0,8.1,2.5,8.1,7.3L31.2,40.6z"/>
	<g>
		<path class="st0" d="M85.8,86.1V84h-6v-0.9h7v7.9H86l-0.1-2.1c-0.9,1.5-2.6,2.3-5.1,2.3c-3.8,0-6-2.1-6-5.8v-5.1
			c0-3.7,2.3-5.8,6.1-5.8c3.7,0,5.9,1.8,5.9,5h-1.1c0-2.6-1.7-4.1-4.8-4.1c-3.2,0-5.1,1.8-5.1,4.9v5.1c0,3,1.9,4.9,5.1,4.9
			C84,90.2,85.8,88.6,85.8,86.1z"/>
		<path class="st0" d="M99.3,87.4c-0.1,2.3-1.8,3.8-4.6,3.8c-3,0-4.8-1.6-4.8-4.3v-3.6c0-2.8,1.9-4.3,4.7-4.3c2.8,0,4.7,1.5,4.7,4.3
			v2.1h-8.4v1.6c0,2.1,1.3,3.4,3.7,3.4c2.3,0,3.6-1.1,3.6-2.9H99.3z M90.9,84.4h7.3v-1.3c0-2.2-1.5-3.3-3.7-3.3
			c-2.2,0-3.7,1.1-3.7,3.3V84.4z"/>
		<path class="st0" d="M104.3,86.8c0,2.8,0.5,3.8,4,3.3v0.9c-4.5,0.8-5-1-5-4.3v-6.5h-2.6v-0.9h2.6v-4.3l1-0.3v4.6h4v0.9h-4V86.8z"
			/>
		<path class="st0" d="M119.9,95.6l1.9-4.6h-0.1l-4.9-11.7h1.1l4.4,10.6l4.4-10.6h1L121,95.6H119.9z"/>
		<path class="st0" d="M138.9,86.9c0,2.8-1.9,4.3-4.7,4.3c-2.8,0-4.7-1.4-4.7-4.3v-3.6c0-2.8,1.9-4.3,4.7-4.3s4.7,1.4,4.7,4.3V86.9z
			 M137.9,83.2c0-2.2-1.5-3.3-3.7-3.3c-2.2,0-3.7,1.1-3.7,3.3V87c0,2.2,1.5,3.3,3.6,3.3c2.2,0,3.7-1.1,3.7-3.3V83.2z"/>
		<path class="st0" d="M151.5,90.9h-0.8l-0.1-1.6c-0.8,1.2-2.2,1.8-4,1.8c-2.8,0-4.5-1.3-4.5-4.1v-7.9h1v7.9c0,2.2,1.4,3.2,3.6,3.2
			c2.2,0,3.8-1.1,3.8-3.3v-7.8h1V90.9z"/>
		<path class="st0" d="M155,79.2h0.8l0.1,1.7c1-1.6,3-2.3,4.9-1.8v0.9c-2.8-0.6-4.9,0.8-4.9,3.1v7.8h-1V79.2z"/>
		<path class="st0" d="M173.7,84.2c1.7,0,3.1,0.5,3.9,1.4v-2.7c0-2.1-1.3-3.1-3.4-3.1c-2.1,0-3.3,0.8-3.3,2.8h-1
			c0-2.5,1.6-3.6,4.4-3.6c2.7,0,4.4,1.3,4.4,4v8h-0.8l-0.1-1.4c-0.8,1.1-2.2,1.6-4,1.6c-2.8,0-4.4-1.1-4.4-3.5
			C169.2,85.3,170.9,84.2,173.7,84.2z M173.8,90.3c2.2,0,3.8-0.9,3.8-2.6c0-1.7-1.6-2.6-3.8-2.6c-2.2,0-3.6,0.8-3.6,2.6
			C170.2,89.5,171.6,90.3,173.8,90.3z"/>
		<path class="st0" d="M181.8,83.3c0-2.7,1.6-4.3,4.5-4.3c1.8,0,3.2,0.6,4,1.9l0.1-1.6h0.8v12.3c0,2.7-1.8,4.3-4.8,4.3
			c-2.9,0-4.6-1.5-4.6-3.9h1c0,1.9,1.3,3.1,3.6,3.1c2.4,0,3.8-1.3,3.8-3.4V89c-0.8,1.2-2.1,1.8-3.9,1.8c-2.8,0-4.5-1.5-4.5-4.3V83.3
			z M182.8,86.6c0,2.1,1.4,3.3,3.6,3.3c2.3,0,3.8-1.3,3.8-3.5v-3.1c0-2.2-1.5-3.5-3.8-3.5c-2.2,0-3.6,1.2-3.6,3.3V86.6z"/>
		<path class="st0" d="M203.8,87.4c-0.1,2.3-1.8,3.8-4.6,3.8c-3,0-4.8-1.6-4.8-4.3v-3.6c0-2.8,1.9-4.3,4.7-4.3
			c2.8,0,4.7,1.5,4.7,4.3v2.1h-8.4v1.6c0,2.1,1.3,3.4,3.7,3.4c2.3,0,3.6-1.1,3.6-2.9H203.8z M195.4,84.4h7.3v-1.3
			c0-2.2-1.5-3.3-3.7-3.3c-2.2,0-3.7,1.1-3.7,3.3V84.4z"/>
		<path class="st0" d="M207,79.2h0.8l0.1,1.6c0.8-1.2,2.2-1.8,4-1.8c2.8,0,4.5,1.3,4.5,4.1v7.9h-1V83c0-2.2-1.4-3.2-3.6-3.2
			c-2.2,0-3.8,1.1-3.8,3.3v7.8h-1V79.2z"/>
		<path class="st0" d="M222.1,86.8c0,2.8,0.5,3.8,4,3.3v0.9c-4.5,0.8-5-1-5-4.3v-6.5h-2.6v-0.9h2.6v-4.3l1-0.3v4.6h4v0.9h-4V86.8z"
			/>
	</g>
</g>
</svg>
