<?xml version="1.0" encoding="utf-8"?>
<!-- Generator: Adobe Illustrator 21.1.0, SVG Export Plug-In . SVG Version: 6.00 Build 0)  -->
<svg version="1.1" id="Layer_1" xmlns="http://www.w3.org/2000/svg" xmlns:xlink="http://www.w3.org/1999/xlink" x="0px" y="0px"
	 viewBox="0 0 262 56" style="enable-background:new 0 0 262 56;" xml:space="preserve">
<style type="text/css">
	.st0{fill:#FFFFFF;}
	.st1{opacity:0.35;fill:#FFFFFF;}
</style>
<g>
	<path class="st0" d="M116.7,21.9h7.7v-3.8h-7.7V1.5h-4.4v31.9c0,7.2,4.7,10.9,12.1,10.9v-3.8c-4.6,0-7.7-2.3-7.7-6.8v-2.2V21.9z"/>
	<rect x="128.7" y="18.2" class="st0" width="4.4" height="26.2"/>
	<rect x="128.7" y="7.9" class="st0" width="4.4" height="6.2"/>
	<rect x="181.3" y="38.2" class="st1" width="4.4" height="6.2"/>
	<path class="st0" d="M40.9,16.3c-7.3,0-12.1,3.7-12.1,10.9v5.2v1.4c0,7.2,4.8,10.9,12.1,10.9c3,0,5.6-0.7,7.6-1.9v1.4
		c0,4.3-2.8,6.9-7.7,6.9c-3.3,0-5.5-1.2-6.7-3l-3.7,2.2c1.9,3,5.5,4.6,10.4,4.6c7.5,0,12.1-3.9,12.1-11.1v-2.9v-7.3v-1.4v-4.5v-0.7
		C52.9,20,48.1,16.3,40.9,16.3z M48.5,34.5c-0.2,4.2-3.1,6.4-7.5,6.4c-4.6,0-7.7-2.3-7.7-6.8v-7.2c0-4.5,3-6.8,7.7-6.8
		c4.6,0,7.6,2.3,7.6,6.8L48.5,34.5z"/>
	<path class="st0" d="M173.1,18.2v16.3c-0.2,4.2-3.1,6.4-7.5,6.4c-4.6,0-7.7-2.3-7.7-6.8V18.2h-16.1v-6c0-4.5,3-6.8,7.7-6.8V1.5
		c-7.3,0-12.1,3.7-12.1,10.9v31.9h4.4V22h11.7v11.8c0,7.2,4.8,10.9,12.1,10.9c3,0,5.6-0.7,7.6-1.9v1.4c0,4.3-2.8,6.9-7.7,6.9
		c-3.3,0-5.5-1.2-6.7-3l-3.7,2.2c1.9,3,5.5,4.6,10.4,4.6c7.5,0,12.1-3.9,12.1-11.1V18.2H173.1z"/>
	<path class="st0" d="M68.7,16.3c-7.3,0-12.1,3.7-12.1,10.9v6.1c0,7.2,4.7,11.4,12.1,11.4c4.9,0,8.5-1.6,10.4-4.6l-3.7-2.2
		c-1.1,1.8-3.3,3-6.7,3c-5,0-7.7-3-7.7-7.3v-6.7c0-4.5,3-6.8,7.7-6.8c4.6,0,7.6,2.3,7.6,6.8V28H64.8v3.6h16v-4.4
		C80.8,20,76,16.3,68.7,16.3z"/>
	<path class="st1" d="M249,16.3c-7.3,0-12.1,3.7-12.1,10.9v6.1c0,7.2,4.7,11.4,12.1,11.4c4.9,0,8.5-1.6,10.4-4.6l-3.7-2.2
		c-1.1,1.8-3.3,3-6.7,3c-5,0-7.7-3-7.7-7.3v-6.7c0-4.5,3-6.8,7.7-6.8c4.6,0,7.6,2.3,7.6,6.8V28H245v3.6h16v-4.4
		C261,20,256.2,16.3,249,16.3z"/>
	<polygon class="st0" points="68.7,35.1 68.7,35.1 68.7,35.1 	"/>
	<path class="st0" d="M88.9,44.4V26.9c0-4.5,3-6.8,7.7-6.8c4.6,0,7.6,2.3,7.6,6.8v17.4h4.5V27.2c0-7.2-4.8-10.9-12-10.9
		c-7.3,0-12.1,3.7-12.1,10.9v17.2H88.9z"/>
	<path class="st1" d="M221.1,16.3c-4.3,0-7.7,1.3-9.8,3.9c-2.1-2.6-5.5-3.9-9.8-3.9c-7.3,0-12.1,3.7-12.1,10.9v17.2h4.4V26.9
		c0-4.5,3-6.8,7.7-6.8c4.6,0,7.6,2.3,7.6,6.8v17.4h4.5V26.9c0-4.5,3-6.8,7.6-6.8c4.6,0,7.7,2.3,7.7,6.8v17.4h4.4V27.2
		C233.2,20,228.4,16.3,221.1,16.3z"/>
	<path class="st0" d="M20.7,44.4h4.4v-3.3v-7.3v-1.4v-4.5v-0.7c0-7.2-4.8-10.9-12-10.9C5.8,16.3,1,20,1,27.2v5.2v1.4
		C1,41,5.8,44.7,13.1,44.7c3,0,5.6-0.7,7.6-1.9V44.4z M20.6,34.5c-0.2,4.2-3.1,6.4-7.5,6.4c-4.6,0-7.7-2.3-7.7-6.8v-7.1
		c0-4.5,3-6.8,7.7-6.8c4.6,0,7.6,2.3,7.6,6.8L20.6,34.5z"/>
</g>
</svg>
