<?xml version="1.0" encoding="utf-8"?>
<!-- Generator: Adobe Illustrator 21.1.0, SVG Export Plug-In . SVG Version: 6.00 Build 0)  -->
<svg version="1.1" id="Layer_1" xmlns="http://www.w3.org/2000/svg" xmlns:xlink="http://www.w3.org/1999/xlink" x="0px" y="0px"
	 viewBox="0 0 282 100" style="enable-background:new 0 0 282 100;" xml:space="preserve">
<style type="text/css">
	.st0{fill:#333333;}
	.st1{fill:url(#SVGID_1_);}
</style>
<g>
	<g>
		<path class="st0" d="M76.8,85.7v-2.1h-6v-0.9h7v7.9H77l-0.1-2.1c-0.9,1.5-2.6,2.3-5.1,2.3c-3.8,0-6-2.1-6-5.8v-5.1
			c0-3.7,2.3-5.8,6.1-5.8c3.7,0,5.9,1.8,5.9,5h-1.1c0-2.6-1.7-4.1-4.8-4.1c-3.2,0-5.1,1.8-5.1,4.9V85c0,3,1.9,4.9,5.1,4.9
			C75,89.8,76.8,88.3,76.8,85.7z"/>
		<path class="st0" d="M90.3,87c-0.1,2.3-1.8,3.8-4.6,3.8c-3,0-4.8-1.6-4.8-4.3v-3.6c0-2.8,1.9-4.3,4.7-4.3c2.8,0,4.7,1.5,4.7,4.3
			v2.1h-8.4v1.6c0,2.1,1.3,3.4,3.7,3.4c2.3,0,3.6-1.1,3.6-2.9H90.3z M81.9,84.1h7.3v-1.3c0-2.2-1.5-3.3-3.7-3.3
			c-2.2,0-3.7,1.1-3.7,3.3V84.1z"/>
		<path class="st0" d="M95.3,86.4c0,2.8,0.5,3.8,4,3.3v0.9c-4.5,0.8-5-1-5-4.3v-6.5h-2.6v-0.9h2.6v-4.3l1-0.3v4.6h4v0.9h-4V86.4z"/>
		<path class="st0" d="M110.9,95.2l1.9-4.6h-0.1l-4.9-11.7h1.1l4.4,10.6l4.4-10.6h1L112,95.2H110.9z"/>
		<path class="st0" d="M129.9,86.5c0,2.8-1.9,4.3-4.7,4.3c-2.8,0-4.7-1.4-4.7-4.3v-3.6c0-2.8,1.9-4.3,4.7-4.3c2.8,0,4.7,1.4,4.7,4.3
			V86.5z M128.9,82.8c0-2.2-1.5-3.3-3.7-3.3s-3.7,1.1-3.7,3.3v3.8c0,2.2,1.5,3.3,3.6,3.3c2.2,0,3.7-1.1,3.7-3.3V82.8z"/>
		<path class="st0" d="M142.5,90.5h-0.8l-0.1-1.6c-0.8,1.2-2.2,1.8-4,1.8c-2.8,0-4.5-1.3-4.5-4.1v-7.9h1v7.9c0,2.2,1.4,3.2,3.6,3.2
			c2.2,0,3.8-1.1,3.8-3.3v-7.8h1V90.5z"/>
		<path class="st0" d="M146,78.8h0.8l0.1,1.7c1-1.6,3-2.3,4.9-1.8v0.9c-2.8-0.6-4.9,0.8-4.9,3.1v7.8h-1V78.8z"/>
		<path class="st0" d="M164.7,83.8c1.7,0,3.1,0.5,3.9,1.4v-2.7c0-2.1-1.3-3.1-3.4-3.1c-2.1,0-3.3,0.8-3.3,2.8h-1
			c0-2.5,1.6-3.6,4.4-3.6c2.7,0,4.4,1.3,4.4,4v8h-0.8l-0.1-1.4c-0.8,1.1-2.2,1.6-4,1.6c-2.8,0-4.4-1.1-4.4-3.5
			C160.2,84.9,161.9,83.8,164.7,83.8z M164.8,89.9c2.2,0,3.8-0.9,3.8-2.6c0-1.7-1.6-2.6-3.8-2.6c-2.2,0-3.6,0.8-3.6,2.6
			C161.2,89.1,162.6,89.9,164.8,89.9z"/>
		<path class="st0" d="M172.8,82.9c0-2.7,1.6-4.3,4.5-4.3c1.8,0,3.2,0.6,4,1.9l0.1-1.6h0.8v12.3c0,2.7-1.8,4.3-4.8,4.3
			c-2.9,0-4.6-1.5-4.6-3.9h1c0,1.9,1.3,3.1,3.6,3.1c2.4,0,3.8-1.3,3.8-3.4v-2.5c-0.8,1.2-2.1,1.8-3.9,1.8c-2.8,0-4.5-1.5-4.5-4.3
			V82.9z M173.8,86.2c0,2.1,1.4,3.3,3.6,3.3c2.3,0,3.8-1.3,3.8-3.5V83c0-2.2-1.5-3.5-3.8-3.5c-2.2,0-3.6,1.2-3.6,3.3V86.2z"/>
		<path class="st0" d="M194.8,87c-0.1,2.3-1.8,3.8-4.6,3.8c-3,0-4.8-1.6-4.8-4.3v-3.6c0-2.8,1.9-4.3,4.7-4.3c2.8,0,4.7,1.5,4.7,4.3
			v2.1h-8.4v1.6c0,2.1,1.3,3.4,3.7,3.4c2.3,0,3.6-1.1,3.6-2.9H194.8z M186.4,84.1h7.3v-1.3c0-2.2-1.5-3.3-3.7-3.3
			c-2.2,0-3.7,1.1-3.7,3.3V84.1z"/>
		<path class="st0" d="M198,78.8h0.8l0.1,1.6c0.8-1.2,2.2-1.8,4-1.8c2.8,0,4.5,1.3,4.5,4.1v7.9h-1v-7.9c0-2.2-1.4-3.2-3.6-3.2
			c-2.2,0-3.8,1.1-3.8,3.3v7.8h-1V78.8z"/>
		<path class="st0" d="M213.1,86.4c0,2.8,0.5,3.8,4,3.3v0.9c-4.5,0.8-5-1-5-4.3v-6.5h-2.6v-0.9h2.6v-4.3l1-0.3v4.6h4v0.9h-4V86.4z"
			/>
	</g>
	<g>
		<g>
			<linearGradient id="SVGID_1_" gradientUnits="userSpaceOnUse" x1="66.5809" y1="-38.5204" x2="215.4806" y2="110.3793">
				<stop  offset="0" style="stop-color:#79CC90"/>
				<stop  offset="0.1118" style="stop-color:#79C78F"/>
				<stop  offset="0.2502" style="stop-color:#7AB78D"/>
				<stop  offset="0.4026" style="stop-color:#7B9E8A"/>
				<stop  offset="0.5651" style="stop-color:#7C7B85"/>
				<stop  offset="0.7339" style="stop-color:#7E4F7F"/>
				<stop  offset="0.8" style="stop-color:#7F3B7C"/>
			</linearGradient>
			<path class="st1" d="M103.9,20.6c-7.9,0-13,4-13,11.8v18.5h4.8V32c0-4.9,3.3-7.3,8.3-7.3c4.9,0,8.1,2.5,8.1,7.3v18.8h4.8V32.4
				C116.9,24.6,111.7,20.6,103.9,20.6z M73.9,20.6c-7.9,0-13,4-13,11.8v6.6c0,7.7,5.1,12.3,13.1,12.3c5.3,0,9.2-1.8,11.2-5l-4-2.4
				c-1.2,2-3.6,3.2-7.2,3.2c-5.4,0-8.3-3.2-8.3-7.9V32c0-4.9,3.3-7.3,8.3-7.3c4.9,0,8.1,2.5,8.1,7.3v1.2H69.7v3.8h17.3v-4.7
				C86.9,24.6,81.7,20.6,73.9,20.6z M73.9,40.8L73.9,40.8L73.9,40.8L73.9,40.8z M14,20.6c-7.9,0-13,4-13,11.8v7.1
				c0,7.8,5.1,11.8,13,11.8c3.3,0,6.1-0.7,8.2-2.1v1.7H27V32.4C27,24.6,21.8,20.6,14,20.6z M22.2,40.2c-0.2,4.6-3.3,6.9-8.1,6.9
				c-5,0-8.3-2.5-8.3-7.3V32c0-4.9,3.3-7.3,8.3-7.3c4.9,0,8.1,2.5,8.1,7.3L22.2,40.2z M44,20.6c-7.9,0-13,4-13,11.8v7.1
				c0,7.8,5.1,11.8,13,11.8c3.3,0,6.1-0.7,8.2-2.1v1.5c0,4.6-3,7.5-8.3,7.5c-3.6,0-6-1.2-7.2-3.2l-4,2.4c2.1,3.2,5.9,5,11.2,5
				c8,0,13.1-4.2,13.1-11.9v-18C56.9,24.6,51.8,20.6,44,20.6z M52.1,40.2c-0.2,4.6-3.3,6.9-8.1,6.9c-5,0-8.3-2.5-8.3-7.3V32
				c0-4.9,3.3-7.3,8.3-7.3c4.9,0,8.1,2.5,8.1,7.3L52.1,40.2z M138.5,18.2h4.8v-6.6h-4.8V18.2z M238,20.6c-4.6,0-8.3,1.4-10.6,4.2
				c-2.2-2.8-5.9-4.2-10.6-4.2c-7.9,0-13,4-13,11.8v18.5h4.8V32c0-4.9,3.3-7.3,8.3-7.3c4.9,0,8.1,2.5,8.1,7.3v18.8h4.8V32
				c0-4.9,3.2-7.3,8.1-7.3c5,0,8.3,2.5,8.3,7.3v18.8h4.8V32.4C251,24.6,245.9,20.6,238,20.6z M263.7,33.2v3.8H281v-4.7
				c0-7.8-5.2-11.8-13-11.8c-7.9,0-13,4-13,11.8v6.6c0,7.7,5.1,12.3,13.1,12.3c5.3,0,9.2-1.8,11.2-5l-4-2.4c-1.2,2-3.6,3.2-7.2,3.2
				c-5.4,0-8.3-3.2-8.3-7.9V32c0-4.9,3.3-7.3,8.3-7.3c4.9,0,8.1,2.5,8.1,7.3v1.2H263.7z M195.2,50.8h4.8v-6.6h-4.8V50.8z M125.6,4.7
				h-4.8V39c0,7.8,5.1,11.8,13,11.8v-4.1c-5,0-8.2-2.5-8.2-7.3V26.7h8.2v-4.1h-8.2V4.7z M138.5,50.8h4.8V22.6h-4.8V50.8z
				 M186.3,40.2c-0.2,4.6-3.3,6.9-8.1,6.9c-5,0-8.3-2.5-8.3-7.3V22.6h-17.3v-6.4c0-4.9,3.3-7.3,8.2-7.3V4.7c-7.9,0-13,4-13,11.8
				v34.3h4.8V26.7h12.6v12.7c0,7.8,5.1,11.8,13,11.8c3.3,0,6.1-0.7,8.2-2.1v1.5c0,4.6-3,7.5-8.3,7.5c-3.6,0-6-1.2-7.2-3.2l-4,2.4
				c2.1,3.2,5.9,5,11.2,5c8,0,13.1-4.2,13.1-11.9V22.6h-4.8V40.2z"/>
		</g>
	</g>
</g>
</svg>
