<?xml version="1.0" encoding="utf-8"?>
<!-- Generator: Adobe Illustrator 21.1.0, SVG Export Plug-In . SVG Version: 6.00 Build 0)  -->
<svg version="1.1" id="Layer_1" xmlns="http://www.w3.org/2000/svg" xmlns:xlink="http://www.w3.org/1999/xlink" x="0px" y="0px"
	 viewBox="0 0 240 60" style="enable-background:new 0 0 240 60;" xml:space="preserve">
<style type="text/css">
	.st0{fill:#FFFFFF;}
	.st1{opacity:0.35;fill:#FFFFFF;}
</style>
<g>
	<path class="st0" d="M108.1,24.6h6.5v-3.2h-6.5v-14h-3.7v27c0,6.1,4,9.3,10.2,9.3v-3.2c-3.9,0-6.5-1.9-6.5-5.8v-1.9V24.6z"/>
	<rect x="118.2" y="21.4" class="st0" width="3.7" height="22.2"/>
	<rect x="118.2" y="12.8" class="st0" width="3.7" height="5.2"/>
	<rect x="162.7" y="38.4" class="st1" width="3.7" height="5.2"/>
	<path class="st0" d="M43.9,19.8c-6.2,0-10.2,3.2-10.2,9.3v4.4v1.2c0,6.1,4,9.3,10.2,9.3c2.6,0,4.8-0.6,6.4-1.6v1.2
		c0,3.6-2.3,5.9-6.5,5.9c-2.8,0-4.7-1-5.6-2.5L35,48.7c1.6,2.5,4.7,3.9,8.8,3.9c6.3,0,10.3-3.3,10.3-9.4v-2.4v-6.2v-1.2v-3.8v-0.6
		C54.1,23,50.1,19.8,43.9,19.8z M50.3,35.3c-0.2,3.6-2.6,5.4-6.4,5.4c-3.9,0-6.5-1.9-6.5-5.8v-6.1c0-3.8,2.6-5.8,6.5-5.8
		c3.9,0,6.4,1.9,6.4,5.8L50.3,35.3z"/>
	<path class="st0" d="M155.8,21.4v13.8c-0.2,3.6-2.6,5.4-6.4,5.4c-3.9,0-6.5-1.9-6.5-5.8V21.4h-13.6v-5c0-3.8,2.6-5.8,6.5-5.8V7.4
		c-6.2,0-10.2,3.2-10.2,9.3v27h3.7V24.7h9.9v10c0,6.1,4,9.3,10.2,9.3c2.6,0,4.8-0.6,6.4-1.6v1.2c0,3.6-2.3,5.9-6.5,5.9
		c-2.8,0-4.7-1-5.6-2.5l-3.2,1.9c1.6,2.5,4.7,3.9,8.8,3.9c6.3,0,10.3-3.3,10.3-9.4V21.4H155.8z"/>
	<path class="st0" d="M67.5,19.8c-6.2,0-10.2,3.2-10.2,9.3v5.2c0,6.1,4,9.7,10.3,9.7c4.1,0,7.2-1.4,8.8-3.9l-3.2-1.9
		c-0.9,1.6-2.8,2.6-5.6,2.6c-4.2,0-6.5-2.5-6.5-6.2v-5.6c0-3.8,2.6-5.8,6.5-5.8c3.9,0,6.4,1.9,6.4,5.8v0.9h-9.8v3h13.6v-3.7
		C77.7,23,73.6,19.8,67.5,19.8z"/>
	<path class="st1" d="M220,19.8c-6.2,0-10.2,3.2-10.2,9.3v5.2c0,6.1,4,9.7,10.3,9.7c4.1,0,7.2-1.4,8.8-3.9l-3.2-1.9
		c-0.9,1.6-2.8,2.6-5.6,2.6c-4.2,0-6.5-2.5-6.5-6.2v-5.6c0-3.8,2.6-5.8,6.5-5.8c3.9,0,6.4,1.9,6.4,5.8v0.9h-9.8v3h13.6v-3.7
		C230.2,23,226.1,19.8,220,19.8z"/>
	<polygon class="st0" points="67.5,35.8 67.5,35.8 67.5,35.8 	"/>
	<path class="st0" d="M84.5,43.6V28.9c0-3.8,2.6-5.8,6.5-5.8c3.9,0,6.4,1.9,6.4,5.8v14.8h3.8V29.1c0-6.1-4.1-9.3-10.2-9.3
		c-6.2,0-10.2,3.2-10.2,9.3v14.5H84.5z"/>
	<path class="st1" d="M196.4,19.8c-3.6,0-6.5,1.1-8.3,3.3c-1.8-2.2-4.7-3.3-8.3-3.3c-6.2,0-10.2,3.2-10.2,9.3v14.5h3.7V28.9
		c0-3.8,2.6-5.8,6.5-5.8c3.9,0,6.4,1.9,6.4,5.8v14.8h3.8V28.9c0-3.8,2.5-5.8,6.4-5.8c3.9,0,6.5,1.9,6.5,5.8v14.8h3.7V29.1
		C206.6,23,202.6,19.8,196.4,19.8z"/>
	<path class="st0" d="M26.9,43.6h3.7v-2.8v-6.2v-1.2v-3.8v-0.6c0-6.1-4.1-9.3-10.2-9.3c-6.2,0-10.2,3.2-10.2,9.3v4.4v1.2
		c0,6.1,4,9.3,10.2,9.3c2.6,0,4.8-0.6,6.4-1.6V43.6z M26.8,35.3c-0.2,3.6-2.6,5.4-6.4,5.4c-3.9,0-6.5-1.9-6.5-5.8v-6
		c0-3.8,2.6-5.8,6.5-5.8c3.9,0,6.4,1.9,6.4,5.8L26.8,35.3z"/>
</g>
</svg>
