<?xml version="1.0" encoding="utf-8"?>
<!-- Generator: Adobe Illustrator 21.1.0, SVG Export Plug-In . SVG Version: 6.00 Build 0)  -->
<svg version="1.1" id="Layer_1" xmlns="http://www.w3.org/2000/svg" xmlns:xlink="http://www.w3.org/1999/xlink" x="0px" y="0px"
	 viewBox="0 0 400 400" style="enable-background:new 0 0 400 400;" xml:space="preserve">
<style type="text/css">
	.st0{fill:#333333;}
	.st1{font-family:'nudista-web', sans-serif; font-weight: 100;}
	.st2{font-size:21.2093px;}
	.st3{font-size:31.8139px;}
	.st4{fill:none;stroke:#333333;stroke-width:0.8837;stroke-miterlimit:10;}
	.st5{opacity:0.7;fill:url(#SVGID_1_);}
	.st6{opacity:0.5;fill:url(#SVGID_2_);}
	.st7{opacity:0.7;fill:url(#SVGID_3_);}
	.st8{opacity:0.5;fill:url(#SVGID_4_);}
	.st9{fill:#7F3B7C;}
</style>
<text transform="matrix(1 0 0 1 172.0781 75.9531)" class="st0 st1 st2">Talent</text>
<text transform="matrix(1 0 0 1 138.4102 334.2051)" class="st0 st1 st3">Employer</text>
<polyline class="st4" points="10,66.6 200,256.6 390,66.6 "/>
<rect x="191.8" y="269.1" transform="matrix(0.7071 -0.7071 0.7071 0.7071 -137.543 222.6576)" class="st4" width="16.5" height="16.5"/>
<line class="st4" x1="200" y1="110.9" x2="200" y2="146.2"/>
<polygon class="st4" points="200,163.9 217.7,146.2 182.3,146.2 "/>
<text transform="matrix(1 0 0 1 198.0391 1763.6512)" class="st0 st1 st3">Talent</text>
<g>
	
		<linearGradient id="SVGID_1_" gradientUnits="userSpaceOnUse" x1="-242.9511" y1="-2390.4971" x2="-641.5981" y2="-2386.7844" gradientTransform="matrix(0.2597 0.7403 0.7403 0.2597 2205.8804 2516.6536)">
		<stop  offset="4.687500e-03" style="stop-color:#7F3B7C;stop-opacity:0.3"/>
		<stop  offset="1" style="stop-color:#7F3B7C;stop-opacity:0"/>
	</linearGradient>
	<polygon class="st5" points="239.3,1668 421.7,1485.5 406.1,1469.9 223.6,1652.4 	"/>
	
		<linearGradient id="SVGID_2_" gradientUnits="userSpaceOnUse" x1="-56.4418" y1="-2656.1533" x2="-455.0887" y2="-2652.4404" gradientTransform="matrix(1.7214 2.0777 2.0777 1.7214 6205.395 6644.1577)">
		<stop  offset="4.687500e-03" style="stop-color:#7F3B7C;stop-opacity:0.3"/>
		<stop  offset="1" style="stop-color:#7F3B7C;stop-opacity:0"/>
	</linearGradient>
	<polygon class="st6" points="212.4,1641.1 347.7,1505.8 288.3,1446.5 153,1581.8 	"/>
	
		<linearGradient id="SVGID_3_" gradientUnits="userSpaceOnUse" x1="-610.9723" y1="-1278.3069" x2="-1009.6192" y2="-1274.5941" gradientTransform="matrix(-0.2617 0.7383 -0.7383 0.2617 -997.9048 2501.9883)">
		<stop  offset="0" style="stop-color:#7F3B7C;stop-opacity:0.3"/>
		<stop  offset="1" style="stop-color:#7F3B7C;stop-opacity:0"/>
	</linearGradient>
	<polygon class="st7" points="239.2,1668 58.3,1487 73.9,1471.4 254.8,1652.4 	"/>
	
		<linearGradient id="SVGID_4_" gradientUnits="userSpaceOnUse" x1="-913.7052" y1="-1603.0063" x2="-1312.3522" y2="-1599.2935" gradientTransform="matrix(-1.7215 2.0776 -2.0776 1.7215 -5014.3721 6612.5396)">
		<stop  offset="0" style="stop-color:#7F3B7C;stop-opacity:0.3"/>
		<stop  offset="1" style="stop-color:#7F3B7C;stop-opacity:0"/>
	</linearGradient>
	<polygon class="st8" points="266.1,1641.1 130.9,1505.9 190.2,1446.5 325.5,1581.8 	"/>
	<text transform="matrix(1 0 0 1 198.9393 1505.0293)" class="st0 st1 st2">Employer</text>
	<polyline class="st4" points="50,1495.7 240,1685.7 430,1495.7 	"/>
	
		<rect x="231.8" y="1698.2" transform="matrix(0.7071 -0.7071 0.7071 0.7071 -1136.3372 669.5088)" class="st9" width="16.5" height="16.5"/>
	<line class="st4" x1="240" y1="1540" x2="240" y2="1575.3"/>
	<polygon class="st4" points="240,1593 257.7,1575.3 222.3,1575.3 	"/>
</g>
</svg>
