<?xml version="1.0" encoding="utf-8"?>
<!-- Generator: Adobe Illustrator 21.1.0, SVG Export Plug-In . SVG Version: 6.00 Build 0)  -->
<svg version="1.1" id="Layer_1" xmlns="http://www.w3.org/2000/svg" xmlns:xlink="http://www.w3.org/1999/xlink" x="0px" y="0px"
	 viewBox="0 0 460 400" style="enable-background:new 0 0 460 400;" xml:space="preserve">

<style type="text/css">	
	@font-face {
		font-family: NudistaLight;
		src: url(../fonts/NudistaLight.otf);
	}
	.st0{opacity:0.7;fill:url(#SVGID_1_);}
	.st1{opacity:0.5;fill:url(#SVGID_2_);}
	.st2{opacity:0.7;fill:url(#SVGID_3_);}
	.st3{opacity:0.5;fill:url(#SVGID_4_);}
	.st4{fill:#333333;}
	.st5{font-family:'NudistaLight';}
	.st6{font-size:24px;}
	.st7{fill:none;stroke:#333333;stroke-miterlimit:10;}
	.st8{font-size:36px;}
	.st9{fill:#7F3B7C;}	
</style>
<linearGradient id="SVGID_1_" gradientUnits="userSpaceOnUse" x1="-2352.1697" y1="-1670.2939" x2="-2803.27" y2="-1666.0925" gradientTransform="matrix(0.2597 0.7403 0.7403 0.2597 2228.0898 2494.4441)">
	<stop  offset="4.687500e-03" style="stop-color:#7F3B7C;stop-opacity:0.3"/>
	<stop  offset="1" style="stop-color:#7F3B7C;stop-opacity:0"/>
</linearGradient>
<polygon class="st0" points="229.3,265 435.8,58.5 418.1,40.8 211.6,247.3 "/>
<linearGradient id="SVGID_2_" gradientUnits="userSpaceOnUse" x1="-2129.6392" y1="-910.7095" x2="-2580.7397" y2="-906.5081" gradientTransform="matrix(1.7214 2.0777 2.0777 1.7214 6183.7544 6581.8271)">
	<stop  offset="4.687500e-03" style="stop-color:#7F3B7C;stop-opacity:0.3"/>
	<stop  offset="1" style="stop-color:#7F3B7C;stop-opacity:0"/>
</linearGradient>
<polygon class="st1" points="198.9,234.6 352,81.5 284.8,14.3 131.7,167.4 "/>
<linearGradient id="SVGID_3_" gradientUnits="userSpaceOnUse" x1="-2776.0491" y1="-422.3339" x2="-3227.1497" y2="-418.1326" gradientTransform="matrix(-0.2617 0.7383 -0.7383 0.2617 -960.0539 2479.8391)">
	<stop  offset="0" style="stop-color:#7F3B7C;stop-opacity:0.3"/>
	<stop  offset="1" style="stop-color:#7F3B7C;stop-opacity:0"/>
</linearGradient>
<polygon class="st2" points="229.3,265 24.5,60.2 42.2,42.6 246.9,247.3 "/>
<linearGradient id="SVGID_4_" gradientUnits="userSpaceOnUse" x1="-3089.7336" y1="266.3033" x2="-3540.834" y2="270.5047" gradientTransform="matrix(-1.7215 2.0776 -2.0776 1.7215 -4932.728 6550.2124)">
	<stop  offset="0" style="stop-color:#7F3B7C;stop-opacity:0.3"/>
	<stop  offset="1" style="stop-color:#7F3B7C;stop-opacity:0"/>
</linearGradient>
<polygon class="st3" points="259.7,234.6 106.7,81.6 173.8,14.4 326.8,167.4 "/>
<text transform="matrix(1 0 0 1 183.6816 80.5999)" class="st4 st5 st6">Employer</text>
<polyline class="st7" points="15.1,70 230.1,285 445.1,70 "/>
<text transform="matrix(1 0 0 1 182.7515 372.8331)" class="st4 st5 st8">Talent</text>
<rect x="220.8" y="299.2" transform="matrix(0.7071 -0.7071 0.7071 0.7071 -150.7389 253.0962)" class="st9" width="18.6" height="18.6"/>
<line class="st7" x1="230.1" y1="120.1" x2="230.1" y2="160.1"/>
<polygon class="st7" points="230.1,180.1 250.1,160.1 210.1,160.1 "/>
</svg>
