<?xml version="1.0" encoding="utf-8"?>
<svg id="master-artboard" viewBox="0 0 48.91341018676758 80.97351837158203" version="1.1" xmlns="http://www.w3.org/2000/svg" x="0px" y="0px" style="enable-background:new 0 0 1400 980;" width="48.91341018676758px" height="80.97351837158203px"><defs><radialGradient id="gradient-0" gradientUnits="objectBoundingBox" cx="0.5" cy="0.5" r="0.5">
                <stop offset="0" style="stop-color: #43a048"/>
                <stop offset="1" style="stop-color: #255827"/>
              </radialGradient><radialGradient id="gradient-1" gradientUnits="objectBoundingBox" cx="0.5" cy="0.5" r="0.5">
                <stop offset="0" style="stop-color: #43a048"/>
                <stop offset="1" style="stop-color: #255827"/>
              </radialGradient><radialGradient id="gradient-2" gradientUnits="objectBoundingBox" cx="0.5" cy="0.5" r="0.5">
                <stop offset="0" style="stop-color: #43a048"/>
                <stop offset="1" style="stop-color: #255827"/>
              </radialGradient></defs><rect id="ee-background" x="0" y="0" width="48.91341018676758" height="80.97351837158203" style="fill: rgb(255, 255, 255); fill-opacity: 1; pointer-events: none;"/>


<g transform="matrix(-0.46292915940284723, 0.00418910663574934, -0.0036629296373575926, -0.35313400626182556, 72.96276855468749, 196.03871154785156)"><g id="g-2" transform="matrix(1, 0, 0, 1, 0, 0)">
	<g id="g-3">
		<path class="st0" d="M103,336.5L53,424h100L103,336.5" style="fill: rgb(255, 255, 255); stroke: rgb(71, 69, 69); stroke-width: 4;"/>
	</g>
</g></g><g transform="matrix(-0.008061866275966167, -0.635491371154785, 0.022319532930850983, -0.00028314406517893076, -9.712973594665527, 99.30587005615233)"><g id="g-6" transform="matrix(1, 0, 0, 1, 0, 0)">
	<g id="g-7">
		<path class="st0" d="M58,49h100v100H58V49z" style="fill: rgb(71, 69, 69);" transform="matrix(0.7369034290313722, 0, 0, 0.6767082348933041, 41.56925582885742, 1410.5990226269832)"/>
	</g>
</g></g></svg>